<svg xmlns="http://www.w3.org/2000/svg" version="1.1" xmlns:xlink="http://www.w3.org/1999/xlink" width="666" height="666" x="0" y="0" viewBox="-46.5 -46.5 403 403" style="enable-background:new -46.5 -46.5 403 403" xml:space="preserve">

  <g>
    <path id="center-slash" d="M175.682 80.547c-7.981-2.217-16.249 2.456-18.467 10.438l-33.334 120c-2.217 7.982 2.456 16.25 10.438 18.467 1.343.373 2.694.551 4.023.551 6.57 0 12.6-4.35 14.444-10.989l33.334-120c2.217-7.981-2.456-16.25-10.438-18.467z" fill="#33bb77" opacity="1" />



    <path id="left-bracket" d="M74.591 83.467c-6.37-5.298-15.828-4.428-21.124 1.942l-50 60.128a15 15 0 0 0 .02 19.206l50 59.872a14.968 14.968 0 0 0 11.521 5.386c3.391 0 6.801-1.144 9.607-3.487 6.359-5.31 7.209-14.77 1.899-21.128l-41.987-50.277 42.007-50.517c5.296-6.371 4.426-15.829-1.943-21.125z" fill="#3399dd" opacity="1" />



    <path id="right-bracket" d="M306.513 145.257l-50-59.871c-5.31-6.359-14.77-7.208-21.128-1.898-6.359 5.31-7.208 14.77-1.898 21.128l41.987 50.277-42.007 50.517c-5.297 6.37-4.427 15.828 1.942 21.124a14.934 14.934 0 0 0 9.583 3.467c4.303 0 8.575-1.842 11.541-5.41l50-60.128a15 15 0 0 0-.02-19.206z" fill="#3399dd" opacity="1" />

  </g>

</svg>
