<?xml version="1.0" encoding="iso-8859-1"?>
<!-- Generator: Adobe Illustrator 19.0.0, SVG Export Plug-In . SVG Version: 6.00 Build 0)  -->
<svg version="1.1" id="Capa_1" xmlns="http://www.w3.org/2000/svg" xmlns:xlink="http://www.w3.org/1999/xlink" x="0px" y="0px"
	 viewBox="0 0 51.148 51.148" style="enable-background:new 0 0 51.148 51.148;" xml:space="preserve">
<g>
	<g fill="#fff">
		<path d="M22.82,34.793c-0.285-0.031-0.615-0.046-0.995-0.047c-0.23-0.019-0.662-0.018-1.829,0.091
			c-0.904,0.128-1.848,0.338-2.873,0.647c-0.221,0.084-0.53,0.212-0.959,0.393c-0.459,0.211-0.928,0.509-1.427,0.916
			c-0.475,0.422-0.878,0.942-1.179,1.513c-0.394,0.682-0.595,1.496-0.595,2.418c0,1.804,0.813,3.3,2.396,4.431
			c1.434,1.079,3.379,1.641,5.809,1.67c2.191-0.03,3.918-0.545,5.131-1.53c0.002-0.001,0.003-0.002,0.005-0.003
			c1.249-1.025,1.883-2.363,1.883-3.975c0-1.309-0.434-2.465-1.324-3.473c-0.784-0.803-1.955-1.744-3.577-2.876
			C23.147,34.871,22.987,34.812,22.82,34.793z M26.186,41.317c0,0.997-0.376,1.791-1.149,2.426
			c-0.855,0.694-2.167,1.058-3.871,1.082c-1.969-0.023-3.518-0.45-4.624-1.282c-1.061-0.759-1.578-1.681-1.578-2.818
			c0-0.567,0.109-1.044,0.344-1.45c0.208-0.392,0.463-0.724,0.725-0.958c0.334-0.272,0.659-0.481,0.938-0.609
			c0.371-0.157,0.659-0.276,0.795-0.331c0.86-0.257,1.705-0.445,2.464-0.554c0.811-0.075,1.178-0.087,1.328-0.087
			c0.062,0,0.087,0.002,0.094,0.002c0.256,0.033,0.498,0.01,0.709,0.023c1.387,0.979,2.418,1.811,3.038,2.442
			C25.928,39.807,26.186,40.499,26.186,41.317z"/>
		<path d="M34.574,5.265H23.049c-1.585,0-3.307,0.187-5.144,0.561c-1.911,0.446-3.766,1.402-5.576,2.897
			c-2.576,2.491-3.882,5.324-3.882,8.42c0,2.599,0.943,4.903,2.764,6.804c1.794,2.112,4.406,3.205,7.776,3.247
			c0.134,0,0.271-0.002,0.411-0.006c-0.086,0.344-0.128,0.726-0.128,1.154c0,1.037,0.243,1.949,0.683,2.639
			c0.069,0.133,0.141,0.266,0.215,0.396c-1.021,0.088-2.175,0.226-3.457,0.416c-2.158,0.372-4.247,1.129-6.225,2.259
			c-1.827,1.09-3.117,2.394-3.826,3.862c-0.721,1.443-1.086,2.793-1.086,4.012c0,2.502,1.144,4.664,3.368,6.402
			c2.164,1.831,5.421,2.779,9.703,2.819c5.042-0.079,8.981-1.325,11.711-3.704c2.681-2.343,4.04-5.094,4.04-8.193
			c-0.039-2.166-0.554-3.962-1.551-5.367c-0.957-1.255-2.087-2.42-3.358-3.461l-1.916-1.569c-0.253-0.255-0.511-0.548-0.8-0.909
			c-0.118-0.131-0.274-0.36-0.274-0.823c0-0.404,0.105-0.744,0.354-1.085c0.261-0.4,0.541-0.757,0.771-1.001
			c0.612-0.534,1.19-1.059,1.77-1.611c0.513-0.541,1.001-1.134,1.456-1.769c0.991-1.401,1.513-3.254,1.549-5.525l0.001-0.375
			c0.004-0.859,0.006-1.333-0.277-2.271c-0.391-1.069-0.76-1.896-1.328-2.485l-0.026-0.026h0.975c0.312,0,0.605-0.145,0.795-0.393
			l2.834-3.708c0.23-0.302,0.271-0.709,0.102-1.051C35.301,5.481,34.955,5.265,34.574,5.265z M31.246,8.974h-3.062
			c-0.442,0-0.823,0.297-0.949,0.722c-0.126,0.424,0.053,0.887,0.424,1.128c0.225,0.146,1.062,0.956,1.419,1.302l0.305,0.292
			c0.353,0.368,0.707,1.338,0.84,1.697c0.18,0.598,0.179,0.838,0.175,1.633l-0.001,0.367c-0.029,1.844-0.427,3.32-1.179,4.381
			c-0.397,0.556-0.827,1.078-1.239,1.515c-0.524,0.496-1.08,1.002-1.733,1.577c-0.381,0.395-0.741,0.852-1.039,1.313
			c-0.471,0.642-0.709,1.389-0.709,2.222c0,0.85,0.264,1.576,0.747,2.113c0.312,0.392,0.63,0.751,0.945,1.067
			c0.023,0.023,0.049,0.046,0.074,0.067l1.956,1.602c1.151,0.942,2.173,1.994,3.016,3.098c0.739,1.042,1.13,2.461,1.161,4.2
			c0,2.513-1.098,4.695-3.355,6.668c-2.362,2.059-5.87,3.14-10.401,3.211c-3.779-0.036-6.607-0.825-8.436-2.371
			c-1.769-1.383-2.63-2.97-2.63-4.851c0-0.906,0.295-1.955,0.881-3.13c0.542-1.122,1.57-2.14,3.04-3.017
			c1.758-1.005,3.627-1.683,5.531-2.012c1.98-0.292,3.646-0.458,4.951-0.496c0.375-0.011,0.713-0.23,0.874-0.569
			c0.162-0.338,0.12-0.739-0.107-1.037c-0.376-0.494-0.719-1.035-1.059-1.68c-0.279-0.443-0.415-0.981-0.415-1.644
			c0-0.366,0.047-0.669,0.163-0.945c0.122-0.354,0.238-0.678,0.346-0.974c0.118-0.325,0.06-0.688-0.153-0.96
			c-0.191-0.242-0.481-0.381-0.786-0.381c-0.037,0-0.074,0.002-0.111,0.006c-0.626,0.07-1.212,0.106-1.729,0.106
			c-2.793-0.035-4.842-0.867-6.305-2.585c-1.513-1.582-2.248-3.37-2.248-5.466c0-2.568,1.07-4.852,3.213-6.929
			c1.51-1.244,3.091-2.064,4.672-2.434c1.679-0.341,3.266-0.515,4.717-0.515h9.503L31.246,8.974z"/>
		<path d="M20.16,10.298c-1.365,0.033-2.516,0.588-3.418,1.651c-0.023,0.027-0.044,0.055-0.065,0.085
			c-0.716,1.052-1.063,2.24-1.033,3.507c0,1.594,0.464,3.26,1.388,4.967c0.471,0.837,1.086,1.556,1.826,2.134
			c0.819,0.644,1.769,0.97,2.819,0.97c0.013,0,0.025,0,0.037,0c1.306-0.049,2.411-0.529,3.286-1.426
			c0.043-0.044,0.082-0.093,0.117-0.144c0.41-0.618,0.679-1.265,0.809-1.995c0.06-0.56,0.092-1.046,0.092-1.445
			c0-1.714-0.44-3.455-1.302-5.167c-0.438-0.893-1.03-1.636-1.792-2.231C22.135,10.635,21.224,10.331,20.16,10.298z M24.018,18.602
			c0,0.327-0.027,0.741-0.07,1.159c-0.065,0.363-0.215,0.73-0.444,1.094c-0.496,0.478-1.101,0.727-1.845,0.758
			c-0.593-0.004-1.105-0.181-1.567-0.544c-0.533-0.417-0.976-0.935-1.309-1.526c-0.756-1.396-1.139-2.743-1.139-4.024
			c-0.021-0.858,0.194-1.616,0.657-2.314c0.523-0.599,1.13-0.887,1.851-0.906c0.612,0.019,1.136,0.192,1.571,0.505
			c0.491,0.384,0.894,0.893,1.202,1.522C23.651,15.764,24.018,17.203,24.018,18.602z"/>
		<polygon points="45.574,3 42.574,3 42.574,0 40.574,0 40.574,3 37.574,3 37.574,5 40.574,5 40.574,8 42.574,8 42.574,5 45.574,5 
					"/>
	</g>
</g>
<g>
</g>
<g>
</g>
<g>
</g>
<g>
</g>
<g>
</g>
<g>
</g>
<g>
</g>
<g>
</g>
<g>
</g>
<g>
</g>
<g>
</g>
<g>
</g>
<g>
</g>
<g>
</g>
<g>
</g>
</svg>
